<svg id="wave" style="transform:rotate(180deg); transition: 0.3s" viewBox="0 0 1440 310" version="1.1" xmlns="http://www.w3.org/2000/svg"><defs><linearGradient id="sw-gradient-0" x1="0" x2="0" y1="1" y2="0"><stop stop-color="rgba(96.052, 83.302, 79.207, 1)" offset="0%"></stop><stop stop-color="rgba(84.668, 84.668, 84.668, 1)" offset="100%"></stop></linearGradient></defs><path style="transform:translate(0, 0px); opacity:1" fill="url(#sw-gradient-0)" d="M0,186L60,155C120,124,240,62,360,67.2C480,72,600,145,720,144.7C840,145,960,72,1080,82.7C1200,93,1320,186,1440,196.3C1560,207,1680,134,1800,108.5C1920,83,2040,103,2160,113.7C2280,124,2400,124,2520,108.5C2640,93,2760,62,2880,87.8C3000,114,3120,196,3240,217C3360,238,3480,196,3600,196.3C3720,196,3840,238,3960,222.2C4080,207,4200,134,4320,124C4440,114,4560,165,4680,160.2C4800,155,4920,93,5040,87.8C5160,83,5280,134,5400,170.5C5520,207,5640,227,5760,196.3C5880,165,6000,83,6120,77.5C6240,72,6360,145,6480,191.2C6600,238,6720,258,6840,227.3C6960,196,7080,114,7200,108.5C7320,103,7440,176,7560,211.8C7680,248,7800,248,7920,253.2C8040,258,8160,269,8280,248C8400,227,8520,176,8580,149.8L8640,124L8640,310L8580,310C8520,310,8400,310,8280,310C8160,310,8040,310,7920,310C7800,310,7680,310,7560,310C7440,310,7320,310,7200,310C7080,310,6960,310,6840,310C6720,310,6600,310,6480,310C6360,310,6240,310,6120,310C6000,310,5880,310,5760,310C5640,310,5520,310,5400,310C5280,310,5160,310,5040,310C4920,310,4800,310,4680,310C4560,310,4440,310,4320,310C4200,310,4080,310,3960,310C3840,310,3720,310,3600,310C3480,310,3360,310,3240,310C3120,310,3000,310,2880,310C2760,310,2640,310,2520,310C2400,310,2280,310,2160,310C2040,310,1920,310,1800,310C1680,310,1560,310,1440,310C1320,310,1200,310,1080,310C960,310,840,310,720,310C600,310,480,310,360,310C240,310,120,310,60,310L0,310Z"></path></svg>